<svg width="1920" height="482" viewBox="0 0 1920 482" fill="none" xmlns="http://www.w3.org/2000/svg">
<g clip-path="url(#clip0_2101_434)">
<circle cx="88" cy="120" r="114" fill="#006AFF"/>
<circle cx="370" cy="358" r="326" fill="#49D2A4"/>
<line x1="56.6765" y1="96.1531" x2="313.972" y2="356.452" stroke="white" stroke-opacity="0.3" stroke-width="4" stroke-linecap="round"/>
<line x1="40.6765" y1="106.003" x2="305.001" y2="373.413" stroke="white" stroke-opacity="0.3" stroke-width="4" stroke-linecap="round"/>
<line x1="26.6765" y1="116.016" x2="294.516" y2="386.983" stroke="white" stroke-opacity="0.3" stroke-width="4" stroke-linecap="round"/>
<line x1="69.6765" y1="84.1531" x2="323.865" y2="341.308" stroke="white" stroke-opacity="0.3" stroke-width="4" stroke-linecap="round"/>
<line x1="88.6765" y1="78.1531" x2="331.912" y2="324.228" stroke="white" stroke-opacity="0.3" stroke-width="4" stroke-linecap="round"/>
<line x1="107.677" y1="72.2352" x2="336.852" y2="304.086" stroke="white" stroke-opacity="0.3" stroke-width="4" stroke-linecap="round"/>
<line x1="126.677" y1="66.4578" x2="341.792" y2="284.084" stroke="white" stroke-opacity="0.3" stroke-width="4" stroke-linecap="round"/>
<line x1="149.677" y1="65.6805" x2="343.702" y2="261.971" stroke="white" stroke-opacity="0.3" stroke-width="4" stroke-linecap="round"/>
<line x1="172.677" y1="64.0164" x2="345.613" y2="238.971" stroke="white" stroke-opacity="0.3" stroke-width="4" stroke-linecap="round"/>
<line x1="202.677" y1="68.3523" x2="340.463" y2="207.747" stroke="white" stroke-opacity="0.3" stroke-width="4" stroke-linecap="round"/>
<line x1="282.322" y1="395.221" x2="11.8516" y2="126.88" stroke="white" stroke-opacity="0.3" stroke-width="4" stroke-linecap="round"/>
<line x1="268.322" y1="407.221" x2="1.40108" y2="142.402" stroke="white" stroke-opacity="0.3" stroke-width="4" stroke-linecap="round"/>
<line x1="251.444" y1="415.351" x2="-5.24016" y2="160.688" stroke="white" stroke-opacity="0.3" stroke-width="4" stroke-linecap="round"/>
<line x1="232.504" y1="421.536" x2="-13.1202" y2="177.846" stroke="white" stroke-opacity="0.3" stroke-width="4" stroke-linecap="round"/>
<line x1="213.562" y1="427.639" x2="-17.8636" y2="198.035" stroke="white" stroke-opacity="0.3" stroke-width="4" stroke-linecap="round"/>
<line x1="194.62" y1="433.602" x2="-22.6083" y2="218.084" stroke="white" stroke-opacity="0.3" stroke-width="4" stroke-linecap="round"/>
<line x1="171.628" y1="434.603" x2="-24.3029" y2="240.215" stroke="white" stroke-opacity="0.3" stroke-width="4" stroke-linecap="round"/>
<line x1="148.646" y1="436.492" x2="-25.9887" y2="263.232" stroke="white" stroke-opacity="0.3" stroke-width="4" stroke-linecap="round"/>
<line x1="118.605" y1="432.449" x2="-20.5349" y2="294.405" stroke="white" stroke-opacity="0.3" stroke-width="4" stroke-linecap="round"/>
<line x1="85.5129" y1="423.209" x2="-3.934" y2="334.466" stroke="white" stroke-opacity="0.3" stroke-width="4" stroke-linecap="round"/>
<line x1="51.3044" y1="413.153" x2="4.45127" y2="366.669" stroke="white" stroke-opacity="0.3" stroke-width="4" stroke-linecap="round"/>
<circle cx="1904" cy="451" r="326" fill="#49D2A4"/>
<line x1="1973.68" y1="321.202" x2="1747.9" y2="544.374" stroke="white" stroke-opacity="0.2" stroke-width="4" stroke-linecap="round"/>
<line x1="1965.12" y1="307.301" x2="1733.16" y2="536.581" stroke="white" stroke-opacity="0.2" stroke-width="4" stroke-linecap="round"/>
<line x1="1956.42" y1="295.137" x2="1721.38" y2="527.471" stroke="white" stroke-opacity="0.2" stroke-width="4" stroke-linecap="round"/>
<line x1="1984.1" y1="332.496" x2="1761.06" y2="552.969" stroke="white" stroke-opacity="0.2" stroke-width="4" stroke-linecap="round"/>
<line x1="1989.32" y1="349.004" x2="1775.9" y2="559.961" stroke="white" stroke-opacity="0.2" stroke-width="4" stroke-linecap="round"/>
<line x1="1994.46" y1="365.511" x2="1793.4" y2="564.253" stroke="white" stroke-opacity="0.2" stroke-width="4" stroke-linecap="round"/>
<line x1="1999.48" y1="382.019" x2="1810.77" y2="568.545" stroke="white" stroke-opacity="0.2" stroke-width="4" stroke-linecap="round"/>
<line x1="2000.15" y1="402.001" x2="1829.99" y2="570.204" stroke="white" stroke-opacity="0.2" stroke-width="4" stroke-linecap="round"/>
<line x1="2001.6" y1="421.984" x2="1849.97" y2="571.864" stroke="white" stroke-opacity="0.2" stroke-width="4" stroke-linecap="round"/>
<line x1="1997.83" y1="448.048" x2="1877.1" y2="567.39" stroke="white" stroke-opacity="0.2" stroke-width="4" stroke-linecap="round"/>
<line x1="1713.85" y1="516.503" x2="1946.61" y2="281.888" stroke="white" stroke-opacity="0.2" stroke-width="4" stroke-linecap="round"/>
<line x1="1703.42" y1="504.34" x2="1933.13" y2="272.808" stroke="white" stroke-opacity="0.2" stroke-width="4" stroke-linecap="round"/>
<line x1="1696.36" y1="489.676" x2="1917.24" y2="267.038" stroke="white" stroke-opacity="0.2" stroke-width="4" stroke-linecap="round"/>
<line x1="1690.98" y1="473.22" x2="1902.33" y2="260.192" stroke="white" stroke-opacity="0.2" stroke-width="4" stroke-linecap="round"/>
<line x1="1685.68" y1="456.764" x2="1884.79" y2="256.07" stroke="white" stroke-opacity="0.2" stroke-width="4" stroke-linecap="round"/>
<line x1="1680.5" y1="440.306" x2="1867.37" y2="251.948" stroke="white" stroke-opacity="0.2" stroke-width="4" stroke-linecap="round"/>
<line x1="1679.63" y1="420.331" x2="1848.15" y2="250.476" stroke="white" stroke-opacity="0.2" stroke-width="4" stroke-linecap="round"/>
<line x1="1677.99" y1="400.363" x2="1828.15" y2="249.011" stroke="white" stroke-opacity="0.2" stroke-width="4" stroke-linecap="round"/>
<line x1="1681.5" y1="374.263" x2="1801.07" y2="253.75" stroke="white" stroke-opacity="0.2" stroke-width="4" stroke-linecap="round"/>
<line x1="1689.53" y1="345.513" x2="1766.26" y2="268.173" stroke="white" stroke-opacity="0.2" stroke-width="4" stroke-linecap="round"/>
<line x1="1698.27" y1="315.792" x2="1738.28" y2="275.458" stroke="white" stroke-opacity="0.2" stroke-width="4" stroke-linecap="round"/>
<path d="M1706.04 438.753C1706.47 436.612 1709.53 436.612 1709.96 438.753L1712.83 453.029C1712.99 453.814 1713.6 454.43 1714.38 454.593L1728.58 457.542C1730.7 457.983 1730.7 461.017 1728.58 461.458L1714.38 464.407C1713.6 464.57 1712.99 465.186 1712.83 465.971L1709.96 480.247C1709.53 482.388 1706.47 482.388 1706.04 480.247L1703.17 465.971C1703.01 465.186 1702.4 464.57 1701.62 464.407L1687.42 461.458C1685.3 461.017 1685.3 457.983 1687.42 457.542L1701.62 454.593C1702.4 454.43 1703.01 453.814 1703.17 453.029L1706.04 438.753Z" fill="#006AFF"/>
</g>
<defs>
<clipPath id="clip0_2101_434">
<rect width="1920" height="482" fill="white"/>
</clipPath>
</defs>
</svg>
