<svg width="46" height="45" viewBox="0 0 46 45" fill="none" xmlns="http://www.w3.org/2000/svg">
<path d="M21.0392 1.75305C21.4697 -0.388023 24.5303 -0.38802 24.9608 1.75305L27.8308 16.0288C27.9887 16.8143 28.6002 17.4297 29.3846 17.5928L43.5766 20.5418C45.7007 20.9832 45.7007 24.0168 43.5766 24.4582L29.3846 27.4072C28.6002 27.5703 27.9887 28.1857 27.8308 28.9712L24.9608 43.247C24.5303 45.388 21.4697 45.388 21.0392 43.2469L18.1692 28.9712C18.0113 28.1857 17.3998 27.5703 16.6154 27.4072L2.4234 24.4582C0.299276 24.0168 0.299273 20.9832 2.4234 20.5418L16.6154 17.5928C17.3998 17.4297 18.0113 16.8143 18.1692 16.0288L21.0392 1.75305Z" fill="#49D2A4"/>
</svg>
