<svg width="31" height="26" viewBox="0 0 31 26" fill="none" xmlns="http://www.w3.org/2000/svg">
<path fill-rule="evenodd" clip-rule="evenodd" d="M2.45793 8.75012H27.8913C28.2647 8.75023 28.6334 8.8354 28.969 8.99917C29.3046 9.16293 29.5985 9.401 29.8283 9.6953C30.0582 9.9896 30.218 10.3324 30.2955 10.6977C30.3731 11.0629 30.3665 11.4411 30.2761 11.8034L27.635 22.3666C27.4232 23.2139 26.9342 23.9661 26.2459 24.5037C25.5575 25.0413 24.7092 25.3333 23.8358 25.3335H6.51356C5.64016 25.3333 4.79171 25.0413 4.10334 24.5037C3.415 23.9662 2.92607 23.214 2.71426 22.3667C2.71425 22.3666 2.71427 22.3667 2.71426 22.3667L0.0732205 11.8054C0.0704552 11.7944 0.0678804 11.7833 0.0654968 11.7721C-0.0176072 11.4194 -0.0217088 11.0524 0.0536543 10.6977C0.131245 10.3324 0.291026 9.9896 0.520871 9.6953C0.750715 9.401 1.04458 9.16294 1.38017 8.99917C1.71575 8.8354 2.08451 8.75023 2.45793 8.75012ZM27.891 10.7501H2.45821C2.45811 10.7501 2.4583 10.7501 2.45821 10.7501C2.38868 10.7502 2.31981 10.7661 2.25732 10.7966C2.19475 10.8271 2.13996 10.8715 2.09711 10.9263C2.05426 10.9812 2.02447 11.0451 2.01 11.1132C1.99554 11.1813 1.99678 11.2518 2.01362 11.3194C2.01572 11.3278 2.01771 11.3362 2.01958 11.3447L4.65452 21.8815C4.75816 22.2961 4.99745 22.6643 5.33431 22.9274C5.67113 23.1904 6.0862 23.3334 6.51356 23.3335M27.891 10.7501C27.8909 10.7501 27.891 10.7501 27.891 10.7501V10.7501ZM27.891 10.7501C27.9606 10.7502 28.0293 10.766 28.0919 10.7966L27.891 10.7501ZM28.0919 10.7966C28.1544 10.8271 28.2092 10.8715 28.2521 10.9263L28.0919 10.7966ZM28.2521 10.9263C28.2949 10.9812 28.3247 11.0451 28.3392 11.1132L28.2521 10.9263ZM28.3392 11.1132C28.3537 11.1813 28.3524 11.2518 28.3356 11.3194L28.3392 11.1132ZM28.3356 11.3194L25.6947 21.8815C25.591 22.2962 25.3517 22.6643 25.0149 22.9274C24.6781 23.1904 24.263 23.3334 23.8356 23.3335C23.8357 23.3335 23.8356 23.3335 23.8356 23.3335H6.51356" fill="#4B4950"/>
<path fill-rule="evenodd" clip-rule="evenodd" d="M10.7996 14.5835C11.3518 14.5835 11.7996 15.0312 11.7996 15.5835V18.5002C11.7996 19.0524 11.3518 19.5002 10.7996 19.5002C10.2473 19.5002 9.79956 19.0524 9.79956 18.5002V15.5835C9.79956 15.0312 10.2473 14.5835 10.7996 14.5835Z" fill="#4B4950"/>
<path fill-rule="evenodd" clip-rule="evenodd" d="M19.5496 14.5835C20.1018 14.5835 20.5496 15.0312 20.5496 15.5835V18.5002C20.5496 19.0524 20.1018 19.5002 19.5496 19.5002C18.9973 19.5002 18.5496 19.0524 18.5496 18.5002V15.5835C18.5496 15.0312 18.9973 14.5835 19.5496 14.5835Z" fill="#4B4950"/>
<path fill-rule="evenodd" clip-rule="evenodd" d="M12.8126 0.168056C13.2721 0.474408 13.3963 1.09528 13.0899 1.55481L7.2566 10.3048C6.95024 10.7643 6.32937 10.8885 5.86984 10.5822C5.41032 10.2758 5.28614 9.65493 5.59249 9.19541L11.4258 0.445406C11.7322 -0.0141226 12.353 -0.138296 12.8126 0.168056Z" fill="#4B4950"/>
<path fill-rule="evenodd" clip-rule="evenodd" d="M17.5366 0.168056C17.9961 -0.138297 18.617 -0.0141225 18.9233 0.445406L24.7567 9.19541C25.063 9.65493 24.9389 10.2758 24.4793 10.5822C24.0198 10.8885 23.3989 10.7643 23.0926 10.3048L17.2592 1.55481C16.9529 1.09528 17.0771 0.474408 17.5366 0.168056Z" fill="#4B4950"/>
</svg>
