<svg viewBox="0 0 183 20" fill="none" xmlns="http://www.w3.org/2000/svg">
<g clip-path="url(#clip0_1421_755)">
<path d="M31.1628 2.17383H35.1496V8.36978H41.9754V2.17383H45.9621V18.1926H41.9754V11.6945H35.1496V18.1926H31.1628V2.17383Z" fill="black"/>
<path d="M56.8458 18.5555C55.7585 18.5555 54.7216 18.3943 53.7348 18.0719C52.7683 17.7293 51.9227 17.2256 51.1979 16.5607C50.473 15.8756 49.899 15.0192 49.4762 13.9916C49.0534 12.9438 48.842 11.7248 48.842 10.3345V9.73C48.842 8.40014 49.0434 7.24154 49.446 6.25423C49.8488 5.26691 50.4025 4.45084 51.1072 3.80607C51.812 3.14114 52.6274 2.64747 53.5537 2.32509C54.4799 1.98254 55.4765 1.81128 56.5437 1.81128C59.0606 1.81128 60.9734 2.47621 62.2823 3.80607C63.5911 5.13593 64.2455 7.06021 64.2455 9.57888V11.2714H52.9195C52.9395 11.9767 53.0604 12.5912 53.2818 13.1151C53.5032 13.6188 53.7953 14.0319 54.1576 14.3543C54.5202 14.6767 54.933 14.9185 55.396 15.0797C55.8792 15.2207 56.3625 15.2913 56.8458 15.2913C57.8727 15.2913 58.6479 15.1401 59.1713 14.8379C59.6948 14.5357 60.0674 14.0923 60.2888 13.508H63.9434C63.6213 15.1804 62.826 16.4398 61.5574 17.286C60.2888 18.1323 58.7183 18.5555 56.8458 18.5555ZM56.6948 5.07549C56.2316 5.07549 55.7685 5.13593 55.3055 5.25681C54.8625 5.37772 54.4697 5.56914 54.1274 5.83109C53.7853 6.09302 53.5032 6.44565 53.2818 6.88893C53.0604 7.33221 52.9395 7.86619 52.9195 8.49081H60.3795C60.3592 7.82588 60.2485 7.27177 60.0472 6.82849C59.866 6.38519 59.6044 6.03258 59.262 5.77063C58.9397 5.5087 58.5572 5.32735 58.1144 5.2266C57.6713 5.12586 57.1981 5.07549 56.6948 5.07549Z" fill="black"/>
<path d="M70.7183 5.4985H65.6141V2.17383H79.8093V5.4985H74.7051V18.1926H70.7183V5.4985Z" fill="black"/>
<path d="M89.1724 18.5555C88.085 18.5555 87.048 18.3943 86.0615 18.0719C85.095 17.7293 84.2494 17.2155 83.5245 16.5304C82.7996 15.8453 82.2257 14.989 81.8029 13.9614C81.3801 12.9338 81.1687 11.7248 81.1687 10.3345V9.73C81.1687 8.42028 81.3801 7.27177 81.8029 6.28444C82.2257 5.29712 82.7996 4.471 83.5245 3.80607C84.2494 3.14114 85.095 2.64747 86.0615 2.32509C87.048 1.98254 88.085 1.81128 89.1724 1.81128C90.2596 1.81128 91.2866 1.98254 92.2531 2.32509C93.2196 2.64747 94.0652 3.14114 94.7901 3.80607C95.5352 4.471 96.1189 5.29712 96.542 6.28444C96.9648 7.27177 97.1761 8.42028 97.1761 9.73V10.3345C97.1761 11.7047 96.9648 12.9035 96.542 13.9312C96.1189 14.9588 95.5352 15.8151 94.7901 16.5002C94.0652 17.1853 93.2196 17.6991 92.2531 18.0417C91.2866 18.3842 90.2596 18.5555 89.1724 18.5555ZM89.1724 15.1703C90.2999 15.1703 91.2362 14.7674 91.9813 13.9614C92.7464 13.1554 93.1289 11.9464 93.1289 10.3345V9.73C93.1289 8.25909 92.7464 7.14079 91.9813 6.37512C91.2362 5.5893 90.2999 5.19637 89.1724 5.19637C88.0248 5.19637 87.0782 5.5893 86.3334 6.37512C85.5882 7.14079 85.2159 8.25909 85.2159 9.73V10.3345C85.2159 11.9666 85.5882 13.1856 86.3334 13.9916C87.0782 14.7774 88.0248 15.1703 89.1724 15.1703Z" fill="black"/>
<path d="M99.8895 18.5553C99.7284 18.5553 99.5272 18.5452 99.2856 18.5251C99.044 18.5251 98.8426 18.505 98.6814 18.4647V14.868C98.7821 14.8881 98.9333 14.8982 99.1344 14.8982C99.517 14.8982 99.8493 14.7874 100.131 14.5657C100.413 14.3239 100.645 13.921 100.826 13.3568C101.027 12.7926 101.168 12.0471 101.249 11.1202C101.349 10.1732 101.4 9.0045 101.4 7.61418V2.17383H114.085V18.1926H110.098V5.4985H105.084V8.21866C105.084 10.2941 104.974 12.0068 104.752 13.3568C104.551 14.6866 104.229 15.7344 103.786 16.5001C103.363 17.2658 102.819 17.7997 102.155 18.102C101.51 18.4042 100.755 18.5553 99.8895 18.5553Z" fill="black"/>
<path d="M124.95 18.5555C123.862 18.5555 122.825 18.3943 121.839 18.0719C120.872 17.7293 120.026 17.2155 119.302 16.5304C118.577 15.8453 118.003 14.989 117.58 13.9614C117.157 12.9338 116.946 11.7248 116.946 10.3345V9.73C116.946 8.42028 117.157 7.27177 117.58 6.28444C118.003 5.29712 118.577 4.471 119.302 3.80607C120.026 3.14114 120.872 2.64747 121.839 2.32509C122.825 1.98254 123.862 1.81128 124.95 1.81128C126.037 1.81128 127.064 1.98254 128.03 2.32509C128.997 2.64747 129.843 3.14114 130.567 3.80607C131.312 4.471 131.896 5.29712 132.319 6.28444C132.742 7.27177 132.953 8.42028 132.953 9.73V10.3345C132.953 11.7047 132.742 12.9035 132.319 13.9312C131.896 14.9588 131.312 15.8151 130.567 16.5002C129.843 17.1853 128.997 17.6991 128.03 18.0417C127.064 18.3842 126.037 18.5555 124.95 18.5555ZM124.95 15.1703C126.077 15.1703 127.013 14.7674 127.759 13.9614C128.524 13.1554 128.906 11.9464 128.906 10.3345V9.73C128.906 8.25909 128.524 7.14079 127.759 6.37512C127.013 5.5893 126.077 5.19637 124.95 5.19637C123.802 5.19637 122.856 5.5893 122.111 6.37512C121.366 7.14079 120.993 8.25909 120.993 9.73V10.3345C120.993 11.9666 121.366 13.1856 122.111 13.9916C122.856 14.7774 123.802 15.1703 124.95 15.1703Z" fill="black"/>
<path d="M136.113 2.17383H147.59V5.4985H140.1V18.1926H136.113V2.17383Z" fill="black"/>
<path d="M149.998 2.17383H153.985V12.4501L161.113 2.17383H164.797V18.1926H160.81V7.91643L153.683 18.1926H149.998V2.17383Z" fill="black"/>
<path d="M171.664 12.178C170.436 11.775 169.54 11.1706 168.976 10.3646C168.412 9.55859 168.13 8.61157 168.13 7.5235C168.13 6.73769 168.261 6.02239 168.523 5.3776C168.805 4.71266 169.217 4.14848 169.761 3.68504C170.305 3.20146 170.989 2.82869 171.815 2.56676C172.661 2.3048 173.647 2.17383 174.775 2.17383H182.326V18.1926H178.339V12.6616H175.469L171.996 18.1926H167.526L171.664 12.178ZM172.117 7.5235C172.117 8.20859 172.339 8.71234 172.781 9.03471C173.245 9.35711 173.859 9.51832 174.624 9.51832H178.339V5.4985H174.624C173.859 5.4985 173.245 5.66976 172.781 6.01229C172.339 6.33469 172.117 6.83843 172.117 7.5235Z" fill="black"/>
<path fill-rule="evenodd" clip-rule="evenodd" d="M5.15328 10.4802C5.026 10.47 4.89733 10.4648 4.76744 10.4648C2.13446 10.4648 0 12.5993 0 15.2323C0 17.8653 2.13446 19.9997 4.76744 19.9997C7.40042 19.9997 9.53488 17.8653 9.53488 15.2323C9.53488 15.0302 9.5223 14.831 9.49788 14.6355C7.24337 14.4549 5.43121 12.7059 5.15328 10.4802Z" fill="#5D00F5"/>
<path fill-rule="evenodd" clip-rule="evenodd" d="M9.53488 4.76744C9.53488 2.13446 7.40042 0 4.76744 0C2.13446 0 2.61581e-07 2.13446 0 4.76744C-4.73635e-07 7.40042 2.13446 9.53488 4.76744 9.53488C4.88937 9.53488 5.01023 9.5303 5.12984 9.52133C5.30605 7.17726 7.17726 5.30605 9.52133 5.12984C9.5303 5.01023 9.53488 4.88937 9.53488 4.76744Z" fill="#EB236B"/>
<path fill-rule="evenodd" clip-rule="evenodd" d="M14.6357 9.49788C14.8313 9.5223 15.0304 9.53488 15.2325 9.53488C17.8655 9.53488 20 7.40042 20 4.76744C20 2.13446 17.8655 0 15.2325 0C12.5996 0 10.4651 2.13446 10.4651 4.76744C10.4651 4.89733 10.4703 5.026 10.4805 5.15328C12.7062 5.43121 14.4552 7.24337 14.6357 9.49788Z" fill="#4BD0A0"/>
<path fill-rule="evenodd" clip-rule="evenodd" d="M10.5052 14.6108C10.4787 14.8142 10.4651 15.0216 10.4651 15.2323C10.4651 17.8653 12.5996 19.9997 15.2325 19.9997C17.8655 19.9997 20 17.8653 20 15.2323C20 12.5993 17.8655 10.4648 15.2325 10.4648C15.0219 10.4648 14.8144 10.4785 14.611 10.505C14.3329 12.6409 12.6411 14.3327 10.5052 14.6108Z" fill="#0066FF"/>
</g>
<defs>
<clipPath id="clip0_1421_755">
<rect width="182.326" height="20" fill="white"/>
</clipPath>
</defs>
</svg>
