<svg width="863" height="529" viewBox="0 0 863 529" fill="none" xmlns="http://www.w3.org/2000/svg">
<path d="M186.282 362.285H34.4816V323.125L184.082 123.805H239.082V316.525H276.482V362.285H239.082V431.805H186.282V362.285ZM186.282 316.525V184.525L87.2816 316.525H186.282ZM443.785 436.645C427.651 436.645 412.545 434.151 398.465 429.165C384.678 424.178 372.651 415.671 362.385 403.645C352.118 391.325 344.051 375.045 338.185 354.805C332.318 334.271 329.385 308.605 329.385 277.805V269.005C329.385 240.551 332.318 216.791 338.185 197.725C344.051 178.365 352.118 162.965 362.385 151.525C372.651 139.791 384.678 131.431 398.465 126.445C412.545 121.458 427.651 118.965 443.785 118.965C459.918 118.965 474.878 121.458 488.665 126.445C502.745 131.431 514.918 139.791 525.185 151.525C535.451 162.965 543.518 178.365 549.385 197.725C555.251 216.791 558.185 240.551 558.185 269.005V277.805C558.185 308.605 555.251 334.271 549.385 354.805C543.518 375.045 535.451 391.325 525.185 403.645C514.918 415.671 502.745 424.178 488.665 429.165C474.878 434.151 459.918 436.645 443.785 436.645ZM443.785 390.885C451.998 390.885 459.771 389.271 467.105 386.045C474.438 382.818 480.891 377.098 486.465 368.885C492.331 360.378 496.878 348.791 500.105 334.125C503.625 319.458 505.385 300.685 505.385 277.805V269.005C505.385 248.471 503.625 231.458 500.105 217.965C496.878 204.471 492.331 193.765 486.465 185.845C480.891 177.925 474.438 172.498 467.105 169.565C459.771 166.338 451.998 164.725 443.785 164.725C435.571 164.725 427.798 166.338 420.465 169.565C413.131 172.498 406.531 177.925 400.665 185.845C395.091 193.765 390.545 204.471 387.025 217.965C383.798 231.458 382.185 248.471 382.185 269.005V277.805C382.185 300.685 383.798 319.458 387.025 334.125C390.545 348.791 395.091 360.378 400.665 368.885C406.531 377.098 413.131 382.818 420.465 386.045C427.798 389.271 435.571 390.885 443.785 390.885ZM751.733 362.285H599.933V323.125L749.533 123.805H804.533V316.525H841.933V362.285H804.533V431.805H751.733V362.285ZM751.733 316.525V184.525L652.733 316.525H751.733Z" fill="#004EBB"/>
<path d="M726.782 362.285H574.982V323.125L724.582 123.805H779.582V316.525H816.982V362.285H779.582V431.805H726.782V362.285ZM726.782 316.525V184.525L627.782 316.525H726.782Z" fill="#006AFF"/>
<path d="M160.782 362.285H8.98164V323.125L158.582 123.805H213.582V316.525H250.982V362.285H213.582V431.805H160.782V362.285ZM160.782 316.525V184.525L61.7816 316.525H160.782Z" fill="#006AFF"/>
<path d="M419.282 437.645C403.148 437.645 388.042 435.151 373.962 430.165C360.175 425.178 348.148 416.671 337.882 404.645C327.615 392.325 319.548 376.045 313.682 355.805C307.815 335.271 304.882 309.605 304.882 278.805V270.005C304.882 241.551 307.815 217.791 313.682 198.725C319.548 179.365 327.615 163.965 337.882 152.525C348.148 140.791 360.175 132.431 373.962 127.445C388.042 122.458 403.148 119.965 419.282 119.965C435.415 119.965 450.375 122.458 464.162 127.445C478.242 132.431 490.415 140.791 500.682 152.525C510.948 163.965 519.015 179.365 524.882 198.725C530.748 217.791 533.682 241.551 533.682 270.005V278.805C533.682 309.605 530.748 335.271 524.882 355.805C519.015 376.045 510.948 392.325 500.682 404.645C490.415 416.671 478.242 425.178 464.162 430.165C450.375 435.151 435.415 437.645 419.282 437.645ZM419.282 391.885C427.495 391.885 435.268 390.271 442.602 387.045C449.935 383.818 456.388 378.098 461.962 369.885C467.828 361.378 472.375 349.791 475.602 335.125C479.122 320.458 480.882 301.685 480.882 278.805V270.005C480.882 249.471 479.122 232.458 475.602 218.965C472.375 205.471 467.828 194.765 461.962 186.845C456.388 178.925 449.935 173.498 442.602 170.565C435.268 167.338 427.495 165.725 419.282 165.725C411.068 165.725 403.295 167.338 395.962 170.565C388.628 173.498 382.028 178.925 376.162 186.845C370.588 194.765 366.042 205.471 362.522 218.965C359.295 232.458 357.682 249.471 357.682 270.005V278.805C357.682 301.685 359.295 320.458 362.522 335.125C366.042 349.791 370.588 361.378 376.162 369.885C382.028 378.098 388.628 383.818 395.962 387.045C403.295 390.271 411.068 391.885 419.282 391.885Z" fill="#006AFF"/>
</svg>
