<svg width="24" height="24" viewBox="0 0 24 24" fill="none" xmlns="http://www.w3.org/2000/svg">
<path d="M12 2C6.477 2 2 6.477 2 12C2 17.523 6.477 22 12 22C17.523 22 22 17.523 22 12C22 6.477 17.523 2 12 2ZM12 4C16.418 4 20 7.582 20 12C20 15.9344 17.1562 19.1981 13.4141 19.8672V15.0352H15.7793L16.1309 12.3105H13.4297V10.5742C13.4297 9.78622 13.6493 9.25391 14.7793 9.25391H16.207V6.82227C15.512 6.75127 14.8142 6.71675 14.1152 6.71875C12.0412 6.71875 10.6211 7.98459 10.6211 10.3086V12.3145H8.27734V15.0391H10.6211V19.873C6.86169 19.2182 4 15.9467 4 12C4 7.582 7.582 4 12 4Z" fill="white"/>
</svg>
