<svg width="24" height="24" viewBox="0 0 24 24" fill="none" xmlns="http://www.w3.org/2000/svg">
<path d="M12 2C6.48899 2 2 6.489 2 12C2 17.511 6.48899 22 12 22C17.511 22 22 17.511 22 12C22 6.489 17.511 2 12 2ZM12 4C16.4301 4 20 7.56988 20 12C20 16.4301 16.4301 20 12 20C7.56987 20 4 16.4301 4 12C4 7.56988 7.56987 4 12 4ZM6.44531 8.5C6.06431 8.5 6 8.68672 6 8.88672C6 9.24772 6.2995 11.1965 7.9375 13.4375C9.1245 15.0635 10.6892 16 12.0742 16C12.9132 16 13 15.7861 13 15.4531V13.9668C13 13.5658 13.0924 13.5 13.3594 13.5C13.5504 13.5 13.9375 13.625 14.6875 14.5C15.5525 15.509 15.7091 16 16.2051 16H17.5156C17.8196 16 17.995 15.873 18.002 15.625C18.003 15.562 17.9937 15.4901 17.9727 15.4121C17.8757 15.1241 17.432 14.421 16.877 13.75C16.569 13.378 16.266 13.0095 16.127 12.8105C16.032 12.6795 15.996 12.588 16 12.5C16.004 12.408 16.052 12.3183 16.125 12.1953C16.112 12.1953 17.8038 9.82148 17.9688 9.02148C17.9917 8.94548 18.003 8.8745 18 8.8125C17.992 8.6315 17.8672 8.5 17.5742 8.5H16.2656C15.9356 8.5 15.7824 8.69939 15.6934 8.90039C15.6934 8.90039 14.8785 10.5795 13.9375 11.6875C13.6325 12.0075 13.4775 12 13.3125 12C13.2245 12 13 11.8936 13 11.5996V9.00781C13 8.66081 12.9148 8.5 12.6348 8.5H10.3105C10.1065 8.5 10 8.65931 10 8.82031C10 9.15331 10.449 9.23492 10.5 10.1699V11.9805C10.5 12.4205 10.4248 12.5 10.2598 12.5C9.81476 12.5 8.93856 10.9992 8.35156 9.0332C8.22456 8.6462 8.09758 8.5 7.76758 8.5H6.44531Z" fill="white"/>
</svg>
