<svg width="1920" height="880" viewBox="0 0 1920 880" fill="none" xmlns="http://www.w3.org/2000/svg">
<g clip-path="url(#clip0_1421_435)">
<rect width="1920" height="880" fill="white"/>
<rect width="1920" height="880" fill="#006AFF"/>
<circle cx="1534" cy="173" r="326" fill="#49D2A4"/>
<circle cx="172" cy="826" r="114" fill="#49D2A4"/>
<line x1="261.242" y1="550.873" x2="0.232451" y2="808.871" stroke="white" stroke-opacity="0.2" stroke-width="3" stroke-linecap="round"/>
<line x1="251.393" y1="534.873" x2="-16.7289" y2="799.901" stroke="white" stroke-opacity="0.2" stroke-width="3" stroke-linecap="round"/>
<line x1="241.38" y1="520.873" x2="-30.2974" y2="789.416" stroke="white" stroke-opacity="0.2" stroke-width="3" stroke-linecap="round"/>
<line x1="273.242" y1="563.873" x2="15.3757" y2="818.764" stroke="white" stroke-opacity="0.2" stroke-width="3" stroke-linecap="round"/>
<line x1="279.242" y1="582.873" x2="32.4564" y2="826.811" stroke="white" stroke-opacity="0.2" stroke-width="3" stroke-linecap="round"/>
<line x1="285.16" y1="601.873" x2="52.5983" y2="831.752" stroke="white" stroke-opacity="0.2" stroke-width="3" stroke-linecap="round"/>
<line x1="290.937" y1="620.873" x2="72.5996" y2="836.692" stroke="white" stroke-opacity="0.2" stroke-width="3" stroke-linecap="round"/>
<line x1="291.715" y1="643.873" x2="94.7129" y2="838.602" stroke="white" stroke-opacity="0.2" stroke-width="3" stroke-linecap="round"/>
<line x1="293.379" y1="666.873" x2="117.713" y2="840.512" stroke="white" stroke-opacity="0.2" stroke-width="3" stroke-linecap="round"/>
<line x1="289.043" y1="696.873" x2="148.937" y2="835.363" stroke="white" stroke-opacity="0.2" stroke-width="3" stroke-linecap="round"/>
<line x1="279.48" y1="729.873" x2="189.158" y2="819.153" stroke="white" stroke-opacity="0.2" stroke-width="3" stroke-linecap="round"/>
<line x1="-37.826" y1="777.935" x2="231.219" y2="506.754" stroke="white" stroke-opacity="0.2" stroke-width="3" stroke-linecap="round"/>
<line x1="-49.8259" y1="763.935" x2="215.698" y2="496.304" stroke="white" stroke-opacity="0.2" stroke-width="3" stroke-linecap="round"/>
<line x1="-57.9564" y1="747.057" x2="197.411" y2="489.663" stroke="white" stroke-opacity="0.2" stroke-width="3" stroke-linecap="round"/>
<line x1="-64.1414" y1="728.116" x2="180.253" y2="481.783" stroke="white" stroke-opacity="0.2" stroke-width="3" stroke-linecap="round"/>
<line x1="-70.2445" y1="709.175" x2="160.064" y2="477.039" stroke="white" stroke-opacity="0.2" stroke-width="3" stroke-linecap="round"/>
<line x1="-76.2069" y1="690.232" x2="140.015" y2="472.294" stroke="white" stroke-opacity="0.2" stroke-width="3" stroke-linecap="round"/>
<line x1="-77.2085" y1="667.241" x2="117.884" y2="470.6" stroke="white" stroke-opacity="0.2" stroke-width="3" stroke-linecap="round"/>
<line x1="-79.0969" y1="644.258" x2="94.8668" y2="468.914" stroke="white" stroke-opacity="0.2" stroke-width="3" stroke-linecap="round"/>
<line x1="-75.0538" y1="614.217" x2="63.6946" y2="474.368" stroke="white" stroke-opacity="0.2" stroke-width="3" stroke-linecap="round"/>
<line x1="-65.8137" y1="581.126" x2="23.6332" y2="490.969" stroke="white" stroke-opacity="0.2" stroke-width="3" stroke-linecap="round"/>
<line x1="226.243" y1="810.325" x2="273.431" y2="762.762" stroke="white" stroke-opacity="0.2" stroke-width="3" stroke-linecap="round"/>
<line x1="708.82" y1="814.535" x2="435.063" y2="548.112" stroke="white" stroke-opacity="0.11" stroke-width="3" stroke-linecap="round"/>
<line x1="694.936" y1="826.669" x2="424.762" y2="563.733" stroke="white" stroke-opacity="0.11" stroke-width="3" stroke-linecap="round"/>
<line x1="678.137" y1="834.962" x2="418.298" y2="582.083" stroke="white" stroke-opacity="0.11" stroke-width="3" stroke-linecap="round"/>
<line x1="659.257" y1="841.329" x2="410.583" y2="599.316" stroke="white" stroke-opacity="0.11" stroke-width="3" stroke-linecap="round"/>
<line x1="640.376" y1="847.614" x2="406.034" y2="619.55" stroke="white" stroke-opacity="0.11" stroke-width="3" stroke-linecap="round"/>
<line x1="621.491" y1="853.758" x2="401.482" y2="639.643" stroke="white" stroke-opacity="0.11" stroke-width="3" stroke-linecap="round"/>
<line x1="598.51" y1="854.981" x2="400.001" y2="661.789" stroke="white" stroke-opacity="0.11" stroke-width="3" stroke-linecap="round"/>
<line x1="575.547" y1="857.09" x2="398.537" y2="684.822" stroke="white" stroke-opacity="0.11" stroke-width="3" stroke-linecap="round"/>
<line x1="545.468" y1="853.336" x2="404.29" y2="715.94" stroke="white" stroke-opacity="0.11" stroke-width="3" stroke-linecap="round"/>
<line x1="512.289" y1="844.415" x2="421.276" y2="755.84" stroke="white" stroke-opacity="0.11" stroke-width="3" stroke-linecap="round"/>
<line x1="477.985" y1="834.69" x2="429.971" y2="787.961" stroke="white" stroke-opacity="0.11" stroke-width="3" stroke-linecap="round"/>
<line x1="738.668" y1="550.167" x2="690.653" y2="503.438" stroke="white" stroke-opacity="0.11" stroke-width="3" stroke-linecap="round"/>
<line x1="593.928" y1="32.0029" x2="333.629" y2="289.298" stroke="white" stroke-opacity="0.3" stroke-width="4" stroke-linecap="round"/>
<line x1="584.078" y1="16.0029" x2="316.668" y2="280.328" stroke="white" stroke-opacity="0.3" stroke-width="4" stroke-linecap="round"/>
<line x1="574.064" y1="2.00294" x2="303.098" y2="269.843" stroke="white" stroke-opacity="0.3" stroke-width="4" stroke-linecap="round"/>
<line x1="605.928" y1="45.0029" x2="348.773" y2="299.191" stroke="white" stroke-opacity="0.3" stroke-width="4" stroke-linecap="round"/>
<line x1="611.928" y1="64.0029" x2="365.853" y2="307.238" stroke="white" stroke-opacity="0.3" stroke-width="4" stroke-linecap="round"/>
<line x1="617.846" y1="83.0029" x2="385.995" y2="312.178" stroke="white" stroke-opacity="0.3" stroke-width="4" stroke-linecap="round"/>
<line x1="623.623" y1="102.003" x2="405.996" y2="317.118" stroke="white" stroke-opacity="0.3" stroke-width="4" stroke-linecap="round"/>
<line x1="624.4" y1="125.003" x2="428.11" y2="319.029" stroke="white" stroke-opacity="0.3" stroke-width="4" stroke-linecap="round"/>
<line x1="626.064" y1="148.003" x2="451.11" y2="320.939" stroke="white" stroke-opacity="0.3" stroke-width="4" stroke-linecap="round"/>
<line x1="621.729" y1="178.003" x2="482.334" y2="315.789" stroke="white" stroke-opacity="0.3" stroke-width="4" stroke-linecap="round"/>
<line x1="294.86" y1="257.648" x2="563.201" y2="-12.822" stroke="white" stroke-opacity="0.3" stroke-width="4" stroke-linecap="round"/>
<line x1="282.86" y1="243.648" x2="547.68" y2="-23.2725" stroke="white" stroke-opacity="0.3" stroke-width="4" stroke-linecap="round"/>
<line x1="274.73" y1="226.771" x2="529.393" y2="-29.9137" stroke="white" stroke-opacity="0.3" stroke-width="4" stroke-linecap="round"/>
<line x1="268.545" y1="207.83" x2="512.235" y2="-37.7937" stroke="white" stroke-opacity="0.3" stroke-width="4" stroke-linecap="round"/>
<line x1="262.442" y1="188.889" x2="492.046" y2="-42.5372" stroke="white" stroke-opacity="0.3" stroke-width="4" stroke-linecap="round"/>
<line x1="256.479" y1="169.946" x2="471.997" y2="-47.2819" stroke="white" stroke-opacity="0.3" stroke-width="4" stroke-linecap="round"/>
<line x1="255.478" y1="146.955" x2="449.866" y2="-48.9765" stroke="white" stroke-opacity="0.3" stroke-width="4" stroke-linecap="round"/>
<line x1="253.589" y1="123.972" x2="426.849" y2="-50.6625" stroke="white" stroke-opacity="0.3" stroke-width="4" stroke-linecap="round"/>
<line x1="257.632" y1="93.9311" x2="395.676" y2="-45.2085" stroke="white" stroke-opacity="0.3" stroke-width="4" stroke-linecap="round"/>
<line x1="266.872" y1="60.8393" x2="355.615" y2="-28.6076" stroke="white" stroke-opacity="0.3" stroke-width="4" stroke-linecap="round"/>
<line x1="276.928" y1="26.6308" x2="323.412" y2="-20.2223" stroke="white" stroke-opacity="0.3" stroke-width="4" stroke-linecap="round"/>
<line x1="1713.64" y1="-34.4831" x2="1970.93" y2="225.815" stroke="white" stroke-opacity="0.3" stroke-width="4" stroke-linecap="round"/>
<line x1="1697.64" y1="-24.6335" x2="1961.96" y2="242.777" stroke="white" stroke-opacity="0.3" stroke-width="4" stroke-linecap="round"/>
<line x1="1683.64" y1="-14.6198" x2="1951.48" y2="256.347" stroke="white" stroke-opacity="0.3" stroke-width="4" stroke-linecap="round"/>
<line x1="1726.64" y1="-46.4831" x2="1980.83" y2="210.672" stroke="white" stroke-opacity="0.3" stroke-width="4" stroke-linecap="round"/>
<line x1="1745.64" y1="-52.4831" x2="1988.87" y2="193.591" stroke="white" stroke-opacity="0.3" stroke-width="4" stroke-linecap="round"/>
<line x1="1764.64" y1="-58.4011" x2="1993.81" y2="173.449" stroke="white" stroke-opacity="0.3" stroke-width="4" stroke-linecap="round"/>
<line x1="1783.64" y1="-64.1784" x2="1998.75" y2="153.448" stroke="white" stroke-opacity="0.3" stroke-width="4" stroke-linecap="round"/>
<line x1="1806.64" y1="-64.9558" x2="2000.66" y2="131.335" stroke="white" stroke-opacity="0.3" stroke-width="4" stroke-linecap="round"/>
<line x1="1829.64" y1="-66.6198" x2="2002.58" y2="108.335" stroke="white" stroke-opacity="0.3" stroke-width="4" stroke-linecap="round"/>
<line x1="1859.64" y1="-62.2839" x2="1997.43" y2="77.1109" stroke="white" stroke-opacity="0.3" stroke-width="4" stroke-linecap="round"/>
<line x1="1939.28" y1="264.585" x2="1668.81" y2="-3.75608" stroke="white" stroke-opacity="0.3" stroke-width="4" stroke-linecap="round"/>
<line x1="1925.28" y1="276.585" x2="1658.36" y2="11.7655" stroke="white" stroke-opacity="0.3" stroke-width="4" stroke-linecap="round"/>
<line x1="1908.41" y1="284.715" x2="1651.72" y2="30.0517" stroke="white" stroke-opacity="0.3" stroke-width="4" stroke-linecap="round"/>
<line x1="1889.47" y1="290.9" x2="1643.84" y2="47.2101" stroke="white" stroke-opacity="0.3" stroke-width="4" stroke-linecap="round"/>
<line x1="1870.53" y1="297.003" x2="1639.1" y2="67.3992" stroke="white" stroke-opacity="0.3" stroke-width="4" stroke-linecap="round"/>
<line x1="1851.58" y1="302.966" x2="1634.35" y2="87.448" stroke="white" stroke-opacity="0.3" stroke-width="4" stroke-linecap="round"/>
<line x1="1828.59" y1="303.967" x2="1632.66" y2="109.579" stroke="white" stroke-opacity="0.3" stroke-width="4" stroke-linecap="round"/>
<line x1="1805.61" y1="305.856" x2="1630.97" y2="132.596" stroke="white" stroke-opacity="0.3" stroke-width="4" stroke-linecap="round"/>
<line x1="1775.57" y1="301.813" x2="1636.43" y2="163.769" stroke="white" stroke-opacity="0.3" stroke-width="4" stroke-linecap="round"/>
<line x1="1742.48" y1="292.572" x2="1653.03" y2="203.83" stroke="white" stroke-opacity="0.3" stroke-width="4" stroke-linecap="round"/>
<line x1="1708.27" y1="282.517" x2="1661.41" y2="236.033" stroke="white" stroke-opacity="0.3" stroke-width="4" stroke-linecap="round"/>
<line x1="1558.71" y1="853.354" x2="1332.94" y2="1076.53" stroke="white" stroke-opacity="0.2" stroke-width="4" stroke-linecap="round"/>
<line x1="1550.16" y1="839.453" x2="1318.2" y2="1068.73" stroke="white" stroke-opacity="0.2" stroke-width="4" stroke-linecap="round"/>
<line x1="1541.46" y1="827.29" x2="1306.41" y2="1059.62" stroke="white" stroke-opacity="0.2" stroke-width="4" stroke-linecap="round"/>
<line x1="1569.14" y1="864.649" x2="1346.09" y2="1085.12" stroke="white" stroke-opacity="0.2" stroke-width="4" stroke-linecap="round"/>
<line x1="1574.35" y1="881.156" x2="1360.93" y2="1092.11" stroke="white" stroke-opacity="0.2" stroke-width="4" stroke-linecap="round"/>
<line x1="1298.88" y1="1048.66" x2="1531.65" y2="814.04" stroke="white" stroke-opacity="0.2" stroke-width="4" stroke-linecap="round"/>
<line x1="1288.45" y1="1036.49" x2="1518.16" y2="804.96" stroke="white" stroke-opacity="0.2" stroke-width="4" stroke-linecap="round"/>
<line x1="1281.39" y1="1021.83" x2="1502.28" y2="799.19" stroke="white" stroke-opacity="0.2" stroke-width="4" stroke-linecap="round"/>
<line x1="1276.02" y1="1005.37" x2="1487.37" y2="792.344" stroke="white" stroke-opacity="0.2" stroke-width="4" stroke-linecap="round"/>
<line x1="1270.71" y1="988.916" x2="1469.83" y2="788.223" stroke="white" stroke-opacity="0.2" stroke-width="4" stroke-linecap="round"/>
<line x1="1265.53" y1="972.459" x2="1452.41" y2="784.101" stroke="white" stroke-opacity="0.2" stroke-width="4" stroke-linecap="round"/>
<line x1="1264.66" y1="952.483" x2="1433.18" y2="782.628" stroke="white" stroke-opacity="0.2" stroke-width="4" stroke-linecap="round"/>
<line x1="1263.02" y1="932.516" x2="1413.18" y2="781.163" stroke="white" stroke-opacity="0.2" stroke-width="4" stroke-linecap="round"/>
<line x1="1266.54" y1="906.416" x2="1386.1" y2="785.902" stroke="white" stroke-opacity="0.2" stroke-width="4" stroke-linecap="round"/>
<line x1="1274.56" y1="877.665" x2="1351.29" y2="800.325" stroke="white" stroke-opacity="0.2" stroke-width="4" stroke-linecap="round"/>
<line x1="1283.3" y1="847.944" x2="1323.32" y2="807.61" stroke="white" stroke-opacity="0.2" stroke-width="4" stroke-linecap="round"/>
</g>
<defs>
<clipPath id="clip0_1421_435">
<rect width="1920" height="880" fill="white"/>
</clipPath>
</defs>
</svg>
